<?xml version="1.0" encoding="UTF-8"?>
<svg width="374px" height="312px" viewBox="0 0 374 312" version="1.1" xmlns="http://www.w3.org/2000/svg" xmlns:xlink="http://www.w3.org/1999/xlink">
    <!-- Generator: Sketch 50.2 (55047) - http://www.bohemiancoding.com/sketch -->
    <title>screen</title>
    <desc>Created with Sketch.</desc>
    <defs></defs>
    <g id="sketch" stroke="none" stroke-width="1" fill="none" fill-rule="evenodd">
        <g id="screens" transform="translate(0.000000, -1.000000)">
            <g id="screen">
                <g id="icon-screens" fill="#9B9B9B">
                    <path d="M311.916,1.80614876 C320.393376,1.80614876 327.62397,4.7333261 333.608,10.5877686 C339.59203,16.4422111 342.584,23.7290143 342.584,32.4483967 L342.584,110.54876 L311.916,110.54876 L311.916,32.4483967 L31.416,32.4483967 L31.416,219.291372 L233.75,219.291372 L233.75,250.680992 L202.334,250.680992 L202.334,282.070612 L233.75,282.070612 L233.75,312.71286 L108.834,312.71286 L108.834,282.070612 L140.25,282.070612 L140.25,250.680992 L31.416,250.680992 C22.6892897,250.680992 15.2716972,247.566973 9.163,241.338843 C3.05430279,235.110713 0,227.761629 0,219.291372 L0,32.4483967 C0,23.7290143 3.05430279,16.4422111 9.163,10.5877686 C15.2716972,4.7333261 22.6892897,1.80614876 31.416,1.80614876 L311.916,1.80614876 Z M358.666,282.070612 L358.666,172.580628 L280.5,172.580628 L280.5,282.070612 L358.666,282.070612 Z M358.666,141.93838 C362.904688,141.93838 366.519985,143.433109 369.512,146.422612 C372.504015,149.412114 374,153.024376 374,157.259504 L374,297.391736 C374,301.626864 372.504015,305.239126 369.512,308.228628 C366.519985,311.218131 362.904688,312.71286 358.666,312.71286 L280.5,312.71286 C276.261312,312.71286 272.646015,311.218131 269.654,308.228628 C266.661985,305.239126 265.166,301.626864 265.166,297.391736 L265.166,157.259504 C265.166,153.024376 266.661985,149.412114 269.654,146.422612 C272.646015,143.433109 276.261312,141.93838 280.5,141.93838 L358.666,141.93838 Z" id="important_devices---material"></path>
                </g>
                <g id="logo-sym" transform="translate(173.500000, 125.500000) rotate(180.000000) translate(-173.500000, -125.500000) translate(125.000000, 78.000000)" fill="#F5A623" fill-rule="nonzero">
                    <path d="M96.4013195,47.4900916 C96.4013195,21.2611118 74.8263352,-7.10542736e-15 48.2045035,-7.10542736e-15 C21.5788281,-7.10542736e-15 0,21.2611118 0,47.4900916 C0.00384375277,73.7114984 21.5788281,94.9726102 48.2045035,94.9726102 C74.8263352,94.9726102 96.4013195,73.7114984 96.4013195,47.4900916 Z" id="Shape"></path>
                </g>
            </g>
        </g>
    </g>
</svg>