<?xml version="1.0" encoding="UTF-8"?>
<svg width="93px" height="78px" viewBox="0 0 93 78" version="1.1" xmlns="http://www.w3.org/2000/svg" xmlns:xlink="http://www.w3.org/1999/xlink">
    <!-- Generator: Sketch 50.2 (55047) - http://www.bohemiancoding.com/sketch -->
    <title>screen</title>
    <desc>Created with Sketch.</desc>
    <defs></defs>
    <g id="sketch" stroke="none" stroke-width="1" fill="none" fill-rule="evenodd">
        <g id="splash" transform="translate(-126.000000, -29.000000)">
            <g id="screen" transform="translate(126.000000, 29.000000)">
                <g id="Group">
                    <g id="icon-screens" fill="#9B9B9B">
                        <path d="M77.562,0.448661157 C79.6700105,0.448661157 81.4679926,1.17579438 82.956,2.63008264 C84.4440074,4.08437091 85.188,5.89446851 85.188,8.06042975 L85.188,27.461157 L77.562,27.461157 L77.562,8.06042975 L7.812,8.06042975 L7.812,54.4736529 L58.125,54.4736529 L58.125,62.2710744 L50.313,62.2710744 L50.313,70.0684959 L58.125,70.0684959 L58.125,77.6802645 L27.063,77.6802645 L27.063,70.0684959 L34.875,70.0684959 L34.875,62.2710744 L7.812,62.2710744 C5.64198915,62.2710744 3.7975076,61.4975284 2.2785,59.9504132 C0.759492405,58.403298 0,56.5777295 0,54.4736529 L0,8.06042975 C0,5.89446851 0.759492405,4.08437091 2.2785,2.63008264 C3.7975076,1.17579438 5.64198915,0.448661157 7.812,0.448661157 L77.562,0.448661157 Z M89.187,70.0684959 L89.187,42.8703471 L69.75,42.8703471 L69.75,70.0684959 L89.187,70.0684959 Z M89.187,35.2585785 C90.2410053,35.2585785 91.1399963,35.6298806 91.884,36.3724959 C92.6280037,37.1151112 93,38.0124245 93,39.0644628 L93,73.8743802 C93,74.9264185 92.6280037,75.8237318 91.884,76.5663471 C91.1399963,77.3089624 90.2410053,77.6802645 89.187,77.6802645 L69.75,77.6802645 C68.6959947,77.6802645 67.7970037,77.3089624 67.053,76.5663471 C66.3089963,75.8237318 65.937,74.9264185 65.937,73.8743802 L65.937,39.0644628 C65.937,38.0124245 66.3089963,37.1151112 67.053,36.3724959 C67.7970037,35.6298806 68.6959947,35.2585785 69.75,35.2585785 L89.187,35.2585785 Z" id="important_devices---material"></path>
                    </g>
                    <g id="logo-sym" transform="translate(43.000000, 31.000000) rotate(180.000000) translate(-43.000000, -31.000000) translate(31.000000, 19.000000)" fill="#F56F23" fill-rule="nonzero">
                        <path d="M23.8518729,11.7501258 C23.8518729,5.26048127 18.5137324,-7.10542736e-15 11.9268875,-7.10542736e-15 C5.33909148,-7.10542736e-15 0,5.26048127 0,11.7501258 C0.000951031613,18.2378965 5.33909148,23.4983778 11.9268875,23.4983778 C18.5137324,23.4983778 23.8518729,18.2378965 23.8518729,11.7501258 Z" id="Shape"></path>
                    </g>
                </g>
            </g>
        </g>
    </g>
</svg>